name analog
datacolumns 19
datarows 23
range 0.0 0.011
endheader
time	ground_force_vx	ground_force_vy	ground_force_vz	ground_force_px	ground_force_py	ground_force_pz	l_ground_force_vx	l_ground_force_vy	l_ground_force_vz	l_ground_force_px	l_ground_force_py	l_ground_force_pz	ground_torque_x	ground_torque_y	ground_torque_z	l_ground_torque_x	l_ground_torque_y	l_ground_torque_z
0.0	-0.0	-0.0	-0.0	-6.211045742034912	45.57740783691406	-437.0564575195313	5.267346382141113	-47.80382537841797	-342.0824584960937	-0.0	-0.0	-0.0	-0.0	-0.0	-0.0	75993.34375	22614.298828125	-4498.837890625
0.0005	-0.0	-0.0	-0.0	-6.208847999572754	45.14346694946289	-436.7974243164063	5.332849025726318	-47.892086029052734	-341.7335510253906	-0.0	-0.0	-0.0	-0.0	-0.0	-0.0	76095.6484375	22400.33984375	-4498.8251953125
0.001	-0.0	-0.0	-0.0	-6.256807804107666	45.24451446533203	-437.1986999511719	5.289166927337647	-48.12364196777344	-341.5626220703125	-0.0	-0.0	-0.0	-0.0	-0.0	-0.0	75877.8203125	22295.892578125	-4479.88720703125
0.0015	-0.0	-0.0	-0.0	-6.456954002380371	45.176944732666016	-438.6012573242188	5.135385990142822	-47.83698654174805	-340.8573303222656	-0.0	-0.0	-0.0	-0.0	-0.0	-0.0	75986.2109375	22534.162109375	-4473.2705078125
0.002	-0.0	-0.0	-0.0	-6.28783130645752	45.15531539916992	-437.3706970214844	4.89103364944458	-48.15683364868164	-340.15875244140625	-0.0	-0.0	-0.0	-0.0	-0.0	-0.0	76191.03125	22397.787109375	-4458.359375
0.0025	-0.0	-0.0	-0.0	-6.367814064025879	44.92503356933594	-437.90716552734375	5.344184875488281	-48.0469970703125	-341.3855285644531	-0.0	-0.0	-0.0	-0.0	-0.0	-0.0	76326.6953125	22343.076171875	-4405.8828125
0.003	-0.0	-0.0	-0.0	-6.176927089691162	45.36737823486328	-438.33154296875	5.255401611328125	-48.02563095092773	-342.3854064941406	-0.0	-0.0	-0.0	-0.0	-0.0	-0.0	76253.2265625	22475.04296875	-4609.49951171875
0.0035	-0.0	-0.0	-0.0	-6.521091938018799	45.05348205566406	-438.7339477539063	5.099305629730225	-47.87035369873047	-342.4335327148437	-0.0	-0.0	-0.0	-0.0	-0.0	-0.0	76260.671875	22504.509765625	-4499.05712890625
0.004	-0.0	-0.0	-0.0	-6.478392601013184	45.26970672607422	-437.0180969238281	5.4450507164001465	-48.2661018371582	-342.3851318359375	-0.0	-0.0	-0.0	-0.0	-0.0	-0.0	76414.578125	22363.173828125	-4513.185546875
0.0045000000000000005	-0.0	-0.0	-0.0	-6.665141582489014	45.04483413696289	-437.724609375	5.255188465118408	-48.01710510253906	-342.60137939453125	-0.0	-0.0	-0.0	-0.0	-0.0	-0.0	76234.5703125	22502.748046875	-4448.0244140625
0.005	-0.0	-0.0	-0.0	-6.363243579864502	45.44358444213867	-436.1960144042969	5.043929100036621	-48.22364044189453	-342.9164428710937	-0.0	-0.0	-0.0	-0.0	-0.0	-0.0	76239.7421875	22180.595703125	-4579.79736328125
0.0055	-0.0	-0.0	-0.0	-6.622625827789307	45.4094352722168	-438.1097717285156	5.521181583404541	-47.99232864379883	-342.1685791015625	-0.0	-0.0	-0.0	-0.0	-0.0	-0.0	76415.078125	22403.474609375	-4457.869140625
0.006	-0.0	-0.0	-0.0	-6.690788269042969	45.06059265136719	-436.4473876953125	5.390317440032959	-48.13532257080078	-342.3017578125	-0.0	-0.0	-0.0	-0.0	-0.0	-0.0	76467.28125	22146.828125	-4490.42041015625
0.006500000000000001	-0.0	-0.0	-0.0	-6.827404975891113	45.065860748291016	-437.018798828125	5.554908275604248	-47.912105560302734	-343.216064453125	-0.0	-0.0	-0.0	-0.0	-0.0	-0.0	76308.109375	22164.505859375	-4457.8251953125
0.007	-0.0	-0.0	-0.0	-6.525721549987793	45.31240463256836	-436.6129150390625	5.643585205078125	-48.501556396484375	-342.73345947265625	-0.0	-0.0	-0.0	-0.0	-0.0	-0.0	76402.7890625	22249.64453125	-4377.61669921875
0.0075	-0.0	-0.0	-0.0	-7.020703315734863	45.60786437988281	-436.1483459472656	5.513182163238525	-48.421024322509766	-343.2980041503906	-0.0	-0.0	-0.0	-0.0	-0.0	-0.0	76490.0	22170.724609375	-4318.43408203125
0.008	-0.0	-0.0	-0.0	-6.7250494956970215	45.051536560058594	-435.4708862304688	5.192425727844238	-48.08082580566406	-343.7806396484375	-0.0	-0.0	-0.0	-0.0	-0.0	-0.0	76634.484375	22068.94921875	-4343.89111328125
0.0085	-0.0	-0.0	-0.0	-6.81429386138916	45.14118576049805	-434.9810791015625	5.028463840484619	-48.19571304321289	-343.0007629394531	-0.0	-0.0	-0.0	-0.0	-0.0	-0.0	76329.953125	21950.978515625	-4455.80908203125
0.009000000000000001	-0.0	-0.0	-0.0	-6.869209289550781	45.09322738647461	-433.9767761230469	5.145225524902344	-48.42796325683594	-342.4120178222656	-0.0	-0.0	-0.0	-0.0	-0.0	-0.0	76611.875	22132.607421875	-4383.04248046875
0.0095	-0.0	-0.0	-0.0	-6.711262702941895	45.07221984863281	-433.8670654296875	4.933719635009766	-48.43421936035156	-342.86688232421875	-0.0	-0.0	-0.0	-0.0	-0.0	-0.0	76449.8828125	22080.49609375	-4447.001953125
0.01	-0.0	-0.0	-0.0	-6.4027509689331055	45.18271255493164	-434.249755859375	5.4659504890441895	-48.06058120727539	-343.5920715332031	-0.0	-0.0	-0.0	-0.0	-0.0	-0.0	76632.921875	22230.955078125	-4480.7431640625
0.0105	-0.0	-0.0	-0.0	-6.291629314422607	45.18911743164063	-433.5374450683594	5.390955924987793	-48.52923583984375	-343.6996154785156	-0.0	-0.0	-0.0	-0.0	-0.0	-0.0	76765.4453125	21864.328125	-4448.9013671875
0.011	-0.0	-0.0	-0.0	-5.703427314758301	45.07157897949219	-432.7016906738281	5.439079761505127	-48.25768280029297	-343.3506164550781	-0.0	-0.0	-0.0	-0.0	-0.0	-0.0	76602.9140625	21965.623046875	-4405.46533203125
